<svg class="w-[48px] h-[48px] text-gray-800 dark:text-white"
     aria-hidden="true"
     xmlns="http://www.w3.org/2000/svg"
     width="24"
     height="24"
     fill="none"
     viewBox="0 0 24 24">
  <style> path { stroke-width: 1px; stroke: red; transition: stroke 0.3s, stroke-width 0.3s, opacity .5s; opacity: .3; } svg:hover path { stroke-width: 2px;
    stroke: blue; opacity: 1; } </style>
  <path stroke="currentColor"
        stroke-linejoin="round"
        stroke-width="1"
        d="M9 8v3a1 1 0 0 1-1 1H5m11 4h2a1 1 0 0 0 1-1V5a1 1 0 0 0-1-1h-7a1 1 0 0 0-1 1v1m4 3v10a1 1 0 0 1-1 1H6a1 1 0 0 1-1-1v-7.13a1 1 0 0 1 .24-.65L7.7 8.35A1 1 0 0 1 8.46 8H13a1 1 0 0 1 1 1Z" />
</svg>